<?xml version="1.0" encoding="UTF-8"?>
<svg width="32" height="32" viewBox="0 256 1536 512" xmlns="http://www.w3.org/2000/svg">
<path d="M0 0 C30.71797726 0.05936035 61.43587611 0.13388047 92.15376167 0.22898628 C95.79659924 0.24025178 99.43943719 0.25139066 103.08227539 0.26245117 C103.80736901 0.26465486 104.53246262 0.26685854 105.27952877 0.269129 C116.95463947 0.30431111 128.62975014 0.32928223 140.30489387 0.35034702 C152.32275755 0.37226247 164.34055364 0.4054586 176.35835963 0.44870156 C183.0925275 0.47262037 189.8266171 0.49130177 196.56082726 0.49761391 C251.46851601 0.55587099 251.46851601 0.55587099 274 4 C275.01707724 4.15385477 276.03415447 4.30770954 277.08205223 4.46622658 C306.74923772 9.04762429 334.60233527 18.85154413 360 35 C360.9075 35.53367187 361.815 36.06734375 362.75 36.6171875 C364.74250747 37.84174938 366.43593968 39.08506779 368.1875 40.625 C368.78175781 41.14707031 369.37601563 41.66914063 369.98828125 42.20703125 C370.98408203 43.09455078 370.98408203 43.09455078 372 44 C372.77730469 44.68449219 373.55460937 45.36898437 374.35546875 46.07421875 C376.92677688 48.35849714 379.46659354 50.67380117 382 53 C382.7321875 53.65355469 383.464375 54.30710937 384.21875 54.98046875 C394.83532743 64.92389363 403.16803113 77.72459717 409 91 C409.66 91 410.32 91 411 91 C411.11601563 92.01320313 411.23203125 93.02640625 411.3515625 94.0703125 C411.988382 97.92959211 413.02835903 101.21050427 414.375 104.875 C425.3541802 136.69561101 423.2620486 173.87723956 408.8828125 204.28125 C404.06185948 214.01402218 398.02906405 222.7345986 391 231 C390.40960937 231.73605469 389.81921875 232.47210938 389.2109375 233.23046875 C365.58818154 261.62803709 327.92204437 273.05839613 293.28051758 280.44677734 C290.98764581 280.91294868 290.98764581 280.91294868 289 282 C299.50389048 289.03709703 310.02288859 296.0489897 320.625 302.9375 C321.40391602 303.44369873 322.18283203 303.94989746 322.98535156 304.47143555 C328.96781977 308.34964221 334.98134504 312.17826649 341 316 C342.66933862 317.06109128 344.33861093 318.1222869 346.0078125 319.18359375 C346.83651855 319.71049805 347.66522461 320.23740234 348.51904297 320.78027344 C356.57378533 325.90258851 364.62183919 331.03496985 372.65698242 336.18798828 C375.82235654 338.21626761 378.99100662 340.23934517 382.16015625 342.26171875 C385.78632905 344.57668635 389.39852814 346.91038794 392.99609375 349.26953125 C394.4348033 350.20066382 395.87359803 351.1316648 397.3125 352.0625 C398.26261963 352.69816895 398.26261963 352.69816895 399.23193359 353.34667969 C402.36263057 355.47095818 402.36263057 355.47095818 405.99658203 355.74584961 C409.40442799 354.47714751 411.88800203 351.89233952 414.5625 349.5 C415.82582567 348.39079025 417.09015776 347.28272575 418.35546875 346.17578125 C418.97728027 345.63002441 419.5990918 345.08426758 420.23974609 344.52197266 C422.56617959 342.51046275 424.96620103 340.59918719 427.375 338.6875 C435.66360861 331.97236417 443.4578973 324.5421027 451 317 C451.99 317 452.98 317 454 317 C461.83825235 333.61239035 469.60266344 350.2520384 477.15075684 366.9984436 C481.04081569 375.61942614 485.02018679 384.19248202 489.09765625 392.7265625 C489.53087189 393.63380066 489.96408752 394.54103882 490.41043091 395.47576904 C492.54185204 399.93474796 494.68129485 404.38967842 496.83105469 408.83984375 C497.61273618 410.46869915 498.39431661 412.09760305 499.17578125 413.7265625 C499.53342056 414.46057281 499.89105988 415.19458313 500.25953674 415.95083618 C501.83884519 419.25318533 503.1836663 422.40860157 504.11401367 425.95458984 C504.40638916 426.9595752 504.69876465 427.96456055 505 429 C505.66 429.33 506.32 429.66 507 430 C508.36362206 432.96439578 509.58401557 435.95386095 510.7890625 438.984375 C512.08378667 442.67187639 512.08378667 442.67187639 515 445 C515.12375 445.66 515.2475 446.32 515.375 447 C516.13149946 450.6311974 517.58178541 453.6696168 519.16015625 457.01171875 C520 459 520 459 520 461 C520.66 461.33 521.32 461.66 522 462 C522 463.32 522 464.64 522 466 C520.8646582 465.8455542 519.72931641 465.6911084 518.55957031 465.53198242 C488.42565142 461.43733101 458.27871933 457.44575019 428.125 453.5 C426.76657297 453.32221889 426.76657297 453.32221889 425.38070297 453.14084625 C401.01698722 449.95259582 376.65065852 446.7852168 352.28149414 443.6388855 C335.84161 441.51509151 319.41231153 439.32844398 303 437 C303 436.34 303 435.68 303 435 C304.32250977 433.77001953 304.32250977 433.77001953 306.19140625 432.3828125 C306.88210205 431.86388428 307.57279785 431.34495605 308.28442383 430.81030273 C309.03618896 430.25415283 309.7879541 429.69800293 310.5625 429.125 C312.12081254 427.95317926 313.67808272 426.77997126 315.234375 425.60546875 C316.02779297 425.00782715 316.82121094 424.41018555 317.63867188 423.79443359 C321.23747243 421.05961307 324.78143991 418.25898389 328.3125 415.4375 C328.92746338 414.94975098 329.54242676 414.46200195 330.17602539 413.95947266 C333.29869015 411.45942377 336.23958637 408.89673035 339 406 C336.21312902 404.15929441 333.41974873 402.32871822 330.625 400.5 C329.8309375 399.97535156 329.036875 399.45070313 328.21875 398.91015625 C327.07792969 398.16572266 327.07792969 398.16572266 325.9140625 397.40625 C325.2123291 396.94541016 324.5105957 396.48457031 323.78759766 396.00976562 C322.05194936 394.83605668 322.05194936 394.83605668 320 395 C319.44957031 394.43539063 318.89914062 393.87078125 318.33203125 393.2890625 C315.39947122 390.41053624 312.19256199 388.48778983 308.6875 386.375 C303.2693565 383.04863237 297.90429114 379.66800992 292.625 376.125 C292.00858643 375.71161377 291.39217285 375.29822754 290.75708008 374.87231445 C289.48409022 374.01726749 288.21155305 373.1615462 286.93945312 372.30517578 C271.36498151 361.82416807 255.65587683 351.54931549 239.94604492 341.27307129 C234.73110533 337.86154168 229.5171863 334.44845409 224.30386353 331.03445435 C222.50063036 329.85383301 220.69698843 328.67383825 218.89331055 327.49389648 C217.76089918 326.75245021 216.62849347 326.01099531 215.49609375 325.26953125 C214.41956543 324.56521973 213.34303711 323.8609082 212.23388672 323.13525391 C210.00115097 321.66103476 207.77931294 320.17726293 205.56689453 318.67333984 C203.94243408 317.5723999 203.94243408 317.5723999 202.28515625 316.44921875 C201.31586182 315.78623779 200.34656738 315.12325684 199.34790039 314.44018555 C197.17492982 312.82571151 197.17492982 312.82571151 195 313 C193.65798073 311.67540956 192.32623499 310.34039408 191 309 C188.2836368 307.04065605 185.48350491 305.24774555 182.66796875 303.43359375 C179.94757176 301.66582404 177.33935637 299.78640713 174.73828125 297.84765625 C173.98627441 297.30496094 173.23426758 296.76226563 172.45947266 296.203125 C170.9917297 295.14324614 169.54053044 294.05989304 168.11083984 292.94921875 C156.26677955 284.56634958 136.39523901 287.8788133 122.59149551 287.92483521 C118.69184068 287.93771794 114.79222024 287.94414315 110.89254761 287.94897461 C102.63668267 287.9599792 94.3808462 287.97958918 86.125 288 C76.5060943 288.02367974 66.8872042 288.04394115 57.26827621 288.05593872 C53.41866687 288.06243945 49.56910609 288.07493788 45.71951294 288.08764648 C43.38218224 288.09127551 41.04485109 288.09462767 38.70751953 288.09765625 C37.63129333 288.10282257 36.55506714 288.10798889 35.44622803 288.11331177 C34.47366058 288.11338226 33.50109314 288.11345276 32.49905396 288.11352539 C31.2244012 288.11685631 31.2244012 288.11685631 29.92399788 288.12025452 C28 288 28 288 27 287 C26.88910351 284.60742387 26.84261848 282.24343427 26.83886719 279.84985352 C26.83390228 279.10189514 26.82893738 278.35393677 26.82382202 277.58331299 C26.80916574 275.09850154 26.80239304 272.6137539 26.796875 270.12890625 C26.79112684 268.40876767 26.78536907 266.68862912 26.77960205 264.9684906 C26.76908249 261.35781555 26.76324594 257.74716284 26.75976562 254.13647461 C26.75427579 249.50122492 26.7302415 244.86626824 26.70179367 240.23111057 C26.68320604 236.67700833 26.67796379 233.12297724 26.67642975 229.56883049 C26.6733944 227.85953098 26.66533639 226.15023298 26.65224457 224.44098091 C26.63526277 222.05360488 26.6370445 219.66695228 26.64355469 217.27954102 C26.6343399 216.56829575 26.62512512 215.85705048 26.6156311 215.12425232 C26.63250732 213.15699768 26.63250732 213.15699768 27 210 C30 208 30 208 32.20096397 208.36664295 C33.12464586 208.57565078 34.04832775 208.7846586 35 209 C37.60407779 209.09384107 40.18092431 209.13929835 42.78457642 209.13371277 C43.56200742 209.13597833 44.33943843 209.13824388 45.14042795 209.14057809 C47.74288509 209.14690238 50.34528993 209.14608967 52.94775391 209.14526367 C54.81598986 209.14825662 56.68422519 209.15165946 58.55245972 209.15544128 C63.63233022 209.16428346 68.71218387 209.16661982 73.79206133 209.16725707 C76.9768278 209.16796881 80.16159002 209.17010575 83.34635544 209.17275429 C94.49083476 209.18201674 105.63530212 209.18608909 116.77978516 209.18530273 C127.10685921 209.18470551 137.43388042 209.19518465 147.76094115 209.2110464 C156.66415289 209.22422498 165.56734762 209.22948217 174.47056901 209.22884732 C179.77043344 209.22859483 185.07025117 209.23130449 190.37010574 209.24202538 C252.81169062 211.48554915 252.81169062 211.48554915 307.25 185.4375 C318.30279472 173.85670554 321.46007474 160.07614894 321.1875 144.48828125 C320.73537119 136.07680145 319.22310223 128.67108459 315.8046875 120.9609375 C315 119 315 119 315 117 C314.34 117 313.68 117 313 117 C311.95929345 115.35844353 310.96585753 113.68668225 310 112 C298.72437523 96.53073153 280.24726634 90.02757334 262 87 C256.12114839 86.19499521 250.3922651 85.8783556 244.46383667 85.99655151 C243.65410341 86.00784155 242.84437016 86.01913159 242.01009953 86.03076375 C240.25047002 86.05577816 238.49087421 86.0832607 236.73131752 86.11295891 C231.82917683 86.19524722 226.92676493 86.25812016 222.02438354 86.32418823 C220.98183812 86.33874015 219.93929269 86.35329206 218.86515498 86.36828494 C205.48157046 86.55073376 192.09714222 86.62501841 178.71258521 86.69897437 C165.69320004 86.77094156 152.67685598 86.87911911 139.65917969 87.10742188 C129.29999478 87.28891285 118.94367929 87.38852218 108.58285248 87.392398 C103.10720653 87.39737341 97.63875113 87.44236024 92.16485214 87.58642197 C58.99506717 88.42185683 58.99506717 88.42185683 50.75089264 82.77420807 C45.68012789 77.50606876 42.73057401 71.65313781 40.17119217 64.86458206 C38.35988871 60.43437196 35.71967493 56.66329857 33 52.75 C32.12148054 51.40287165 31.24702378 50.05307369 30.37890625 48.69921875 C29.97687988 48.0757959 29.57485352 47.45237305 29.16064453 46.81005859 C26.86136698 43.22426899 24.5959516 39.61698851 22.33984375 36.00390625 C21.02207096 33.89220841 21.02207096 33.89220841 19 32 C18.08336392 30.40176274 17.16975885 28.80171554 16.27099609 27.19335938 C13.0195112 21.58226827 9.38776702 16.18810172 5.86914062 10.7421875 C5.25876953 9.79085938 4.64839844 8.83953125 4.01953125 7.859375 C3.46370361 6.99795898 2.90787598 6.13654297 2.33520508 5.24902344 C1 3 1 3 0 0 Z " fill="#E41527" transform="translate(581,267)"/>
<path d="M0 0 C0.66 0 1.32 0 2 0 C3.64880749 2.42950428 5.1844364 4.85708594 6.6875 7.375 C9.95429156 12.79735954 13.38569514 18.03063991 17.04370117 23.19775391 C19.25970535 26.37200774 21.41185236 29.58612515 23.55078125 32.8125 C23.93985153 33.39891266 24.32892181 33.98532532 24.7297821 34.58950806 C26.33616009 37.01268176 27.9406143 39.43711805 29.54321289 41.86279297 C30.73123239 43.65986493 31.92207478 45.45503956 33.11328125 47.25 C33.81235596 48.30703125 34.51143066 49.3640625 35.23168945 50.453125 C36.90344607 53.02181771 36.90344607 53.02181771 39 55 C40.00292504 56.52631741 40.97757353 58.07128038 41.9375 59.625 C47.74041993 68.83086681 53.99019488 77.73526433 60.2578125 86.62890625 C66.69904479 95.77423202 73.01596187 104.98246178 79.1875 114.3125 C84.06360148 121.6822809 89.02741686 128.93951548 94.32080078 136.015625 C97.8890675 140.79345039 101.19379043 145.70394741 104.44140625 150.70703125 C105.93825707 153.06312056 105.93825707 153.06312056 108 155 C85.23 155 62.46 155 39 155 C39.00523682 163.65855225 39.01047363 172.31710449 39.01586914 181.23803711 C39.03190296 208.90971158 39.04303552 236.58138607 39.05106533 264.25306397 C39.05231611 268.54785972 39.05361042 272.84265545 39.05493164 277.13745117 C39.05532511 278.42003144 39.05532511 278.42003144 39.05572652 279.72852243 C39.06008348 293.59208178 39.06797117 307.455637 39.0771528 321.31919389 C39.08648862 335.53362445 39.09205546 349.74805283 39.09408849 363.96248633 C39.09546387 372.74078917 39.09981524 381.51908036 39.10791647 390.29737962 C39.11318305 396.30860736 39.1148045 402.31982903 39.11350138 408.33105891 C39.11285786 411.80452285 39.11387705 415.27796635 39.11920547 418.7514267 C39.12413501 422.50832764 39.12300103 426.2651775 39.12025452 430.02207947 C39.12462378 431.68692702 39.12462378 431.68692702 39.12908131 433.38540787 C39.12709026 434.38365005 39.12509921 435.38189223 39.12304783 436.41038418 C39.12342755 437.27880457 39.12380727 438.14722497 39.1241985 439.04196113 C39 441 39 441 38 442 C35.73008113 442.09439978 33.45718033 442.11742226 31.18530273 442.11352539 C30.11706772 442.11374443 30.11706772 442.11374443 29.0272522 442.1139679 C26.66266888 442.1132687 24.29816339 442.10547606 21.93359375 442.09765625 C20.29834537 442.09579209 18.66309643 442.09436818 17.02784729 442.09336853 C12.71565215 442.08954318 8.40349048 442.07971275 4.09130859 442.06866455 C-0.30565946 442.0584508 -4.70263289 442.05387099 -9.09960938 442.04882812 C-17.73308831 442.03809049 -26.36654 442.02101387 -35 442 C-35.80520174 434.49616466 -36.13910226 427.10403418 -36.10534668 419.55993652 C-36.10454259 418.47923669 -36.1037385 417.39853685 -36.10291004 416.28508854 C-36.09894981 412.74406782 -36.08767547 409.20311297 -36.07617188 405.66210938 C-36.07160908 403.15102959 -36.06742195 400.63994911 -36.063591 398.1288681 C-36.04988921 390.41921715 -36.02575443 382.70961869 -36 375 C-35.99285731 372.70044973 -35.98574554 370.40089935 -35.97866821 368.10134888 C-35.93289944 353.70000775 -35.86815384 339.29877981 -35.79807091 324.89753914 C-35.76908519 318.88136354 -35.74163394 312.8651809 -35.71398926 306.84899902 C-35.66189927 295.5602486 -35.60851736 284.27150472 -35.5546174 272.98276281 C-35.49311101 260.08691383 -35.43312691 247.1910579 -35.37324238 234.2952013 C-35.25046858 207.86345963 -35.12567438 181.43172805 -35 155 C-65.69 155.495 -65.69 155.495 -97 156 C-97 155.01 -97 154.02 -97 153 C-96.17822266 152.195625 -96.17822266 152.195625 -95.33984375 151.375 C-92.01652603 148.00174929 -89.92700868 144.08077882 -87.5625 140 C-82.69120002 131.71962952 -77.59147935 123.62827233 -72.27758789 115.625 C-69.56152755 111.51081142 -67.15469199 107.44365262 -65 103 C-64.0291961 101.46036569 -63.03059598 99.93776863 -62 98.4375 C-60.4446053 96.1463426 -58.9250348 93.87505799 -57.5 91.5 C-56.18055367 89.30092279 -54.79408829 87.19092305 -53.359375 85.06640625 C-49.70360875 79.59703721 -46.22386556 74.02356159 -42.75 68.4375 C-41.41145833 66.29036458 -40.07291667 64.14322917 -38.734375 61.99609375 C-38.09048828 60.96210449 -37.44660156 59.92811523 -36.78320312 58.86279297 C-34.52618367 55.23932499 -32.26369377 51.6193003 -30 48 C-29.21870533 46.75002792 -28.43745687 45.50002696 -27.65625 44.25 C-25.57291667 40.91666667 -23.48958333 37.58333333 -21.40625 34.25 C-20.44755005 32.71569336 -20.44755005 32.71569336 -19.46948242 31.15039062 C-18.16589549 29.06516864 -16.86138411 26.98052427 -15.5559082 24.89648438 C-12.64423592 20.24613947 -9.74226051 15.59131231 -6.88671875 10.90625 C-6.19449219 9.77703125 -6.19449219 9.77703125 -5.48828125 8.625 C-4.64245405 7.24322824 -3.80228344 5.8579724 -2.96875 4.46875 C-2.03277244 2.94491284 -1.02409396 1.46607136 0 0 Z " fill="#E41527" transform="translate(545,266)"/>
<path d="M0 0 C0 0.33 0 0.66 0 1 C-22.77 1 -45.54 1 -69 1 C-68.99476318 9.65855225 -68.98952637 18.31710449 -68.98413086 27.23803711 C-68.96809704 54.90971158 -68.95696448 82.58138607 -68.94893467 110.25306397 C-68.94768389 114.54785972 -68.94638958 118.84265545 -68.94506836 123.13745117 C-68.94480605 123.99250469 -68.94454374 124.8475582 -68.94427348 125.72852243 C-68.93991652 139.59208178 -68.93202883 153.455637 -68.9228472 167.31919389 C-68.91351138 181.53362445 -68.90794454 195.74805283 -68.90591151 209.96248633 C-68.90453613 218.74078917 -68.90018476 227.51908036 -68.89208353 236.29737962 C-68.88681695 242.30860736 -68.8851955 248.31982903 -68.88649862 254.33105891 C-68.88714214 257.80452285 -68.88612295 261.27796635 -68.88079453 264.7514267 C-68.87586499 268.50832764 -68.87699897 272.2651775 -68.87974548 276.02207947 C-68.87683264 277.13197784 -68.8739198 278.24187621 -68.87091869 279.38540787 C-68.87290974 280.38365005 -68.87490079 281.38189223 -68.87695217 282.41038418 C-68.87657245 283.27880457 -68.87619273 284.14722497 -68.8758015 285.04196113 C-69 287 -69 287 -70 288 C-72.26991887 288.09439978 -74.54281967 288.11742226 -76.81469727 288.11352539 C-77.88293228 288.11374443 -77.88293228 288.11374443 -78.9727478 288.1139679 C-81.33733112 288.1132687 -83.70183661 288.10547606 -86.06640625 288.09765625 C-87.70165463 288.09579209 -89.33690357 288.09436818 -90.97215271 288.09336853 C-95.28434785 288.08954318 -99.59650952 288.07971275 -103.90869141 288.06866455 C-108.30565946 288.0584508 -112.70263289 288.05387099 -117.09960938 288.04882812 C-125.73308831 288.03809049 -134.36654 288.02101387 -143 288 C-143.69831285 281.21715739 -144.15071058 274.52131238 -144.1328125 267.703125 C-144.13376923 266.86642273 -144.13472595 266.02972046 -144.13571167 265.16766357 C-144.13638585 263.41320723 -144.13458541 261.65874828 -144.13037109 259.90429688 C-144.1250394 257.26947194 -144.13032833 254.63481957 -144.13671875 252 C-144.14025506 241.95545792 -143.83528578 232.01201319 -143 222 C-142.67 222 -142.34 222 -142 222 C-141.85192037 226.61409823 -141.71001041 231.22834055 -141.57275391 235.84277344 C-141.52576499 237.39750742 -141.4773631 238.95219964 -141.42724609 240.50683594 C-140.93992091 255.68353449 -141 270.80013233 -141 286 C-117.9 286 -94.8 286 -71 286 C-71 191.29 -71 96.58 -71 -1 C-5 -2 -5 -2 0 0 Z " fill="#D3141E" transform="translate(653,420)"/>
</svg>
